<svg xmlns="http://www.w3.org/2000/svg" viewBox="0 0 24 24" fill="none" stroke="#1B1B1B" stroke-width="2" stroke-linecap="round" stroke-linejoin="round">
  <path d="M12 3c2.9 0 5 2.2 5 5v3c0 .8.5 1.2 1.2 1.5.5.2.8.7.7 1.2-.2.9-1.5 1.3-2.5 1.5-.6.1-.9.4-1 .8-.1.6-.3 1.3-1.2 1.3-.5 0-1-.2-1.6-.4-.5-.2-1-.3-1.6-.3s-1.1.1-1.6.3c-.6.2-1.1.4-1.6.4-.9 0-1.1-.7-1.2-1.3-.1-.4-.4-.7-1-.8-1-.2-2.3-.6-2.5-1.5-.1-.5.2-1 .7-1.2C6.5 12.2 7 11.8 7 11V8c0-2.8 2.1-5 5-5z"/>
  <path d="M9.5 10.2h.01M14.5 10.2h.01"/>
</svg>